<?xml version="1.0" encoding="UTF-8" standalone="no"?>
<!-- Created with Inkscape (http://www.inkscape.org/) -->

<svg
   xmlns:dc="http://purl.org/dc/elements/1.1/"
   xmlns:cc="http://creativecommons.org/ns#"
   xmlns:rdf="http://www.w3.org/1999/02/22-rdf-syntax-ns#"
   xmlns:svg="http://www.w3.org/2000/svg"
   xmlns="http://www.w3.org/2000/svg"
   xmlns:xlink="http://www.w3.org/1999/xlink"
   xmlns:sodipodi="http://sodipodi.sourceforge.net/DTD/sodipodi-0.dtd"
   xmlns:inkscape="http://www.inkscape.org/namespaces/inkscape"
   width="1024"
   height="1024"
   viewBox="0 0 270.93333 270.93334"
   version="1.1"
   id="svg959"
   inkscape:version="0.92.3 (2405546, 2018-03-11)"
   sodipodi:docname="Logo Particle.svg"
   inkscape:export-filename="/home/spike/Documents/Grafica/SecondLife/OpenSim/OS_Collar/Corporate Identity/Logo Particle.png"
   inkscape:export-xdpi="96"
   inkscape:export-ydpi="96">
  <defs
     id="defs953">
    <linearGradient
       inkscape:collect="always"
       id="linearGradient1088">
      <stop
         style="stop-color:#262626;stop-opacity:1"
         offset="0"
         id="stop1084" />
      <stop
         style="stop-color:#b3b3b3;stop-opacity:1"
         offset="1"
         id="stop1086" />
    </linearGradient>
    <linearGradient
       inkscape:collect="always"
       xlink:href="#linearGradient1088"
       id="linearGradient1062"
       gradientUnits="userSpaceOnUse"
       gradientTransform="matrix(0.86455828,0,0,0.86455828,287.61659,21.615669)"
       x1="-211.79259"
       y1="287.62338"
       x2="-211.79259"
       y2="-178.80328" />
  </defs>
  <sodipodi:namedview
     id="base"
     pagecolor="#ffffff"
     bordercolor="#666666"
     borderopacity="1.0"
     inkscape:pageopacity="0"
     inkscape:pageshadow="2"
     inkscape:zoom="0.5"
     inkscape:cx="475.05629"
     inkscape:cy="414.98766"
     inkscape:document-units="px"
     inkscape:current-layer="layer7"
     showgrid="false"
     units="px"
     inkscape:snap-to-guides="true"
     inkscape:snap-grids="true"
     inkscape:snap-global="true"
     showguides="false"
     inkscape:guide-bbox="true"
     inkscape:snap-bbox="false">
    <sodipodi:guide
       position="135.46667,242.8875"
       orientation="0,1"
       id="guide1066"
       inkscape:locked="false"
       inkscape:label="918"
       inkscape:color="rgb(0,0,255)" />
    <sodipodi:guide
       position="135.46667,28.046"
       orientation="0,1"
       id="guide1068"
       inkscape:locked="false"
       inkscape:label="106"
       inkscape:color="rgb(0,0,255)" />
    <sodipodi:guide
       position="27.97,61.988096"
       orientation="1,0"
       id="guide1070"
       inkscape:locked="false"
       inkscape:label="106"
       inkscape:color="rgb(0,0,255)" />
    <sodipodi:guide
       position="242.887,135.46667"
       orientation="1,0"
       id="guide1072"
       inkscape:locked="false"
       inkscape:label="918"
       inkscape:color="rgb(0,0,255)" />
    <sodipodi:guide
       position="0,0"
       orientation="-0.70710678,0.70710678"
       id="guide1074"
       inkscape:locked="false"
       inkscape:label="45"
       inkscape:color="rgb(0,0,255)" />
    <sodipodi:guide
       position="0,270.93333"
       orientation="0.70710678,0.70710678"
       id="guide1076"
       inkscape:locked="false"
       inkscape:label="-45"
       inkscape:color="rgb(0,0,255)" />
    <sodipodi:guide
       position="135.46667,135.467"
       orientation="0,1"
       id="guide1078"
       inkscape:locked="false"
       inkscape:label="0"
       inkscape:color="rgb(255,0,0)" />
    <sodipodi:guide
       position="135.46667,135.46667"
       orientation="-0.8660254,-0.5"
       id="guide1080"
       inkscape:locked="false"
       inkscape:label="120"
       inkscape:color="rgb(255,0,0)" />
    <sodipodi:guide
       position="135.46667,135.46667"
       orientation="0.8660254,-0.5"
       id="guide1082"
       inkscape:locked="false"
       inkscape:label="240"
       inkscape:color="rgb(255,0,0)" />
    <sodipodi:guide
       position="29.36875,174.49271"
       orientation="1,0"
       id="guide1149"
       inkscape:locked="false" />
    <sodipodi:guide
       position="241.56458,202.67084"
       orientation="1,0"
       id="guide1151"
       inkscape:locked="false" />
  </sodipodi:namedview>
  <metadata
     id="metadata956">
    <rdf:RDF>
      <cc:Work
         rdf:about="">
        <dc:format>image/svg+xml</dc:format>
        <dc:type
           rdf:resource="http://purl.org/dc/dcmitype/StillImage" />
        <dc:title></dc:title>
        <cc:license
           rdf:resource="http://creativecommons.org/licenses/by-nc/4.0/" />
      </cc:Work>
      <cc:License
         rdf:about="http://creativecommons.org/licenses/by-nc/4.0/">
        <cc:permits
           rdf:resource="http://creativecommons.org/ns#Reproduction" />
        <cc:permits
           rdf:resource="http://creativecommons.org/ns#Distribution" />
        <cc:requires
           rdf:resource="http://creativecommons.org/ns#Notice" />
        <cc:requires
           rdf:resource="http://creativecommons.org/ns#Attribution" />
        <cc:prohibits
           rdf:resource="http://creativecommons.org/ns#CommercialUse" />
        <cc:permits
           rdf:resource="http://creativecommons.org/ns#DerivativeWorks" />
      </cc:License>
    </rdf:RDF>
  </metadata>
  <g
     inkscape:groupmode="layer"
     id="layer7"
     inkscape:label="Triskellion Background"
     style="display:inline;opacity:1">
    <g
       style="display:inline;fill:#cccccc"
       id="g1163"
       transform="matrix(1.4856869,1.0115392,-1.0115392,1.4856869,71.235446,-202.82422)">
      <path
         style="opacity:1;fill:#cccccc;fill-opacity:1;fill-rule:nonzero;stroke:none;stroke-width:68.81518555;stroke-linecap:round;stroke-linejoin:miter;stroke-miterlimit:4;stroke-dasharray:none;stroke-dashoffset:0;stroke-opacity:1"
         d="M 524.53711 47.208984 A 464.95957 464.95957 0 0 0 373.64844 68.607422 C 364.50687 76.62094 355.60804 85.531542 348.37891 94.857422 C 321.90792 129.00598 300.45064 170.79122 296.48633 198.93164 C 291.09332 237.21444 291.27547 259.6795 294.62109 283.64062 C 302.63147 341.00994 321.82956 386.47023 376.99805 433.54102 C 411.19813 462.72103 450.63649 477.19553 488.57227 483.13867 C 519.25232 444.27619 562.31067 407.23786 620.23438 386.69336 C 703.05569 357.31826 775.4498 365.242 839.96484 391.375 C 854.02522 397.0704 867.79987 403.84616 882.29297 412.49609 C 896.7861 421.14611 911.99949 431.6825 928.90625 444.90039 C 947.10713 459.13007 962.71987 477.02783 976.1543 496.85352 A 464.95957 464.95957 0 0 0 773.67578 127.66602 A 464.95957 464.95957 0 0 0 524.53711 47.208984 z M 373.64844 68.607422 A 464.95957 464.95957 0 0 0 245.65234 131.55469 A 464.9596 464.9596 0 0 1 373.64844 68.607422 z M 245.65234 131.55469 A 464.95957 464.95957 0 0 0 127.66602 250.32422 A 464.95957 464.95957 0 0 0 217.36523 871.39453 C 218.7625 871.60442 220.15592 871.80119 221.54102 871.9668 C 264.44271 877.0934 311.3054 873.97099 337.47461 862.89062 C 373.07565 847.8165 392.24411 836.10231 411.06836 820.9043 C 456.13857 784.51637 485.25213 744.66961 497.22656 673.14453 C 504.67134 628.67468 496.71846 587.29859 482.21289 551.64062 C 433.10175 544.5467 379.31926 525.77669 332.43164 485.77148 C 265.58158 428.73379 236.25064 362.06705 226.625 293.12891 C 222.42937 263.08006 222.51269 231.8506 228.5 189.34961 C 231.27168 169.67455 237.35625 150.30124 245.65234 131.55469 z M 514.82422 215.23047 A 43.860237 43.860241 34.24924 0 1 538.32422 222.82031 A 43.860237 43.860241 34.24924 0 1 549.89648 283.75781 A 43.860237 43.860241 34.24924 0 1 488.95703 295.33008 A 43.860237 43.860241 34.24924 0 1 477.38672 234.39062 A 43.860237 43.860241 34.24924 0 1 514.82422 215.23047 z M 723.77539 435.7793 C 699.27447 435.99662 673.08227 440.79064 643.17969 451.39648 C 600.94381 466.37679 568.75537 493.17749 544.66406 522.94727 C 563.65714 568.56106 575.05663 624.04449 564.9375 684.48828 C 550.42754 771.15851 508.35809 830.60446 454.19922 874.33008 C 430.59248 893.38928 403.76581 909.38796 364.24219 926.12305 C 352.06999 931.27692 339.25371 935.09715 326.05078 937.83008 A 464.95957 464.95957 0 0 0 896.33398 773.67578 A 464.95957 464.95957 0 0 0 960.92578 631.08203 C 958.55493 619.12217 955.27933 606.91857 950.80273 595.95898 C 934.46461 555.96015 909.00925 516.48563 886.62109 498.98242 C 856.16371 475.1704 836.60534 464.10273 814.18164 455.01953 C 783.98188 442.78658 755.27658 435.49989 723.77539 435.7793 z M 960.92578 631.08203 A 464.95957 464.95957 0 0 0 976.1543 496.88086 A 464.9596 464.9596 0 0 1 960.92578 631.08203 z M 293.86133 592.85742 A 43.860236 43.86024 34.249238 0 1 317.36328 600.44727 A 43.860236 43.86024 34.249238 0 1 328.93359 661.38672 A 43.860236 43.86024 34.249238 0 1 267.99414 672.95703 A 43.860236 43.86024 34.249238 0 1 256.42383 612.01758 A 43.860236 43.86024 34.249238 0 1 293.86133 592.85742 z M 732.24219 596.54297 A 43.860237 43.860241 34.24924 0 1 755.74414 604.13281 A 43.860237 43.860241 34.24924 0 1 767.31445 665.07227 A 43.860237 43.860241 34.24924 0 1 706.375 676.64258 A 43.860237 43.860241 34.24924 0 1 694.80469 615.70312 A 43.860237 43.860241 34.24924 0 1 732.24219 596.54297 z M 250.32422 896.33398 A 464.95957 464.95957 0 0 0 286.01172 917.93555 A 464.9596 464.9596 0 0 1 250.32422 896.33398 z M 301.29102 925.83203 A 464.95957 464.95957 0 0 0 326.03906 937.82422 A 464.9596 464.9596 0 0 1 301.29102 925.83203 z "
         transform="matrix(0.1216811,-0.08284733,0.08284733,0.1216811,30.748114,115.58377)"
         id="ellipse1155" />
    </g>
  </g>
  <g
     inkscape:groupmode="layer"
     id="layer8"
     inkscape:label="New Logo 2"
     style="display:inline;opacity:1">
    <text
       xml:space="preserve"
       style="font-style:normal;font-variant:normal;font-weight:bold;font-stretch:normal;font-size:117.38625336px;line-height:100%;font-family:'Tw Cen MT';-inkscape-font-specification:'Tw Cen MT, Bold';font-variant-ligatures:normal;font-variant-caps:normal;font-variant-numeric:normal;font-feature-settings:normal;text-align:justify;letter-spacing:0px;word-spacing:0px;writing-mode:lr-tb;text-anchor:start;display:inline;opacity:1;fill:#ffffff;fill-opacity:1;stroke:#000000;stroke-width:2.64583335;stroke-linecap:butt;stroke-linejoin:miter;stroke-opacity:1;stroke-miterlimit:4;stroke-dasharray:none"
       x="29.543911"
       y="173.09561"
       id="text1075"><tspan
         sodipodi:role="line"
         id="tspan1073"
         x="29.543911"
         y="173.09561"
         style="font-style:normal;font-variant:normal;font-weight:bold;font-stretch:normal;font-size:117.38625336px;font-family:'Tw Cen MT';-inkscape-font-specification:'Tw Cen MT, Bold';font-variant-ligatures:normal;font-variant-caps:normal;font-variant-numeric:normal;font-feature-settings:normal;text-align:justify;writing-mode:lr-tb;text-anchor:start;fill:#ffffff;stroke:#000000;stroke-width:2.64583335;stroke-opacity:1;stroke-miterlimit:4;stroke-dasharray:none">OSC</tspan></text>
  </g>
</svg>
